<svg xmlns="http://www.w3.org/2000/svg" viewBox="0 0 512 512">
  <defs>
    <linearGradient id="grad1" x1="0%" y1="0%" x2="100%" y2="100%">
      <stop offset="0%" style="stop-color:#00f2ff;stop-opacity:1" />
      <stop offset="100%" style="stop-color:#7000ff;stop-opacity:1" />
    </linearGradient>
    <filter id="glow" x="-20%" y="-20%" width="140%" height="140%">
      <feGaussianBlur stdDeviation="15" result="blur" />
      <feComposite in="SourceGraphic" in2="blur" operator="over" />
    </filter>
  </defs>
  
  <!-- Background Container -->
  <rect x="0" y="0" width="512" height="512" rx="128" fill="#05070a" />
  
  <!-- Glowing Border/Accent -->
  <path d="M128 64 H384 A64 64 0 0 1 448 128 V384 A64 64 0 0 1 384 448 H128 A64 64 0 0 1 64 384 V128 A64 64 0 0 1 128 64 Z" 
        fill="none" 
        stroke="url(#grad1)" 
        stroke-width="32" 
        stroke-linecap="round"
        filter="url(#glow)" 
        opacity="0.2"/>

  <!-- Main Chip Icon -->
  <g transform="translate(106, 106) scale(0.59)">
    <path fill="url(#grad1)" d="M448 256c0-106-86-192-192-192S64 150 64 256s86 192 192 192 192-86 192-192z" opacity="0.1"/>
    <path fill="url(#grad1)" d="M256 0c141.4 0 256 114.6 256 256S397.4 512 256 512 0 397.4 0 256 114.6 0 256 0zM256 416c88.4 0 160-71.6 160-160S344.4 96 256 96 96 167.6 96 256s71.6 160 160 160z"/>
    <rect x="216" y="166" width="80" height="180" rx="40" fill="#fff" />
    <rect x="180" y="236" width="152" height="40" rx="20" fill="#05070a" />
  </g>
</svg>
